<?xml version="1.0" encoding="UTF-8" standalone="no"?>
<svg
   fill="none"
   viewBox="0 0 394 80"
   version="1.1"
   id="svg2"
   sodipodi:docname="next.svg"
   inkscape:version="1.4.2 (f4327f4, 2025-05-13)"
   xmlns:inkscape="http://www.inkscape.org/namespaces/inkscape"
   xmlns:sodipodi="http://sodipodi.sourceforge.net/DTD/sodipodi-0.dtd"
   xmlns="http://www.w3.org/2000/svg"
   xmlns:svg="http://www.w3.org/2000/svg">
  <defs
     id="defs2">
    <rect
       x="14.956616"
       y="12.819957"
       width="262.80911"
       height="56.835141"
       id="rect75" />
    <rect
       x="8.9739696"
       y="39.741865"
       width="10.683297"
       height="15.81128"
       id="rect74" />
    <inkscape:perspective
       sodipodi:type="inkscape:persp3d"
       inkscape:vp_x="-8.9739693 : 20.437286 : 1"
       inkscape:vp_y="0 : 342.37526 : 0"
       inkscape:vp_z="385.02603 : 20.437286 : 1"
       inkscape:persp3d-origin="188.02603 : 15.872285 : 1"
       id="perspective68" />
  </defs>
  <sodipodi:namedview
     id="namedview2"
     pagecolor="#ffffff"
     bordercolor="#000000"
     borderopacity="0.25"
     inkscape:showpageshadow="2"
     inkscape:pageopacity="0.0"
     inkscape:pagecheckerboard="0"
     inkscape:deskcolor="#d1d1d1"
     inkscape:zoom="2.3401015"
     inkscape:cx="357.89046"
     inkscape:cy="5.9826464"
     inkscape:window-width="3840"
     inkscape:window-height="2054"
     inkscape:window-x="-11"
     inkscape:window-y="-11"
     inkscape:window-maximized="1"
     inkscape:current-layer="svg2" />
  <text
     xml:space="preserve"
     style="font-size:37.3333px;text-align:start;writing-mode:lr-tb;direction:ltr;text-anchor:start;white-space:pre;inline-size:133.225;display:inline;fill:#000000"
     x="24.357918"
     y="41.451195"
     id="text73"><tspan
       x="24.357918"
       y="41.451195"
       id="tspan1"> </tspan><tspan
       x="24.357918"
       y="100034.06"
       id="tspan3"><tspan
         dx="0 26.067686 23.624979 22.658836 30.552055 23.260399 22.239563"
         id="tspan2">Chowder</tspan></tspan></text>
  <text
     xml:space="preserve"
     id="text74"
     style="text-align:start;writing-mode:lr-tb;direction:ltr;white-space:pre;shape-inside:url(#rect74);display:inline;fill:#000000" />
  <text
     xml:space="preserve"
     id="text75"
     style="font-size:24px;text-align:start;writing-mode:lr-tb;direction:ltr;white-space:pre;shape-inside:url(#rect75);display:inline;fill:#000000" />
  <path
     style="fill:#000000"
     id="path75"
     d="m 62.67014,15.798111 c -2.677675,1.239524 -5.404685,2.363615 -8.117357,3.522396 -2.241817,0.988178 -4.400813,2.146073 -6.598009,3.226501 -5.560685,2.826627 -11.391825,5.066147 -17.080197,7.618047 -2.620498,1.414778 -5.53738,2.285904 -8.050981,3.899622 -1.040125,0.667755 -1.234979,0.880553 -2.136957,1.64585 -1.343764,1.350811 -2.478179,2.88847 -3.546667,4.460615 -1.607751,2.437811 0.544402,3.865803 2.318458,5.289807 6.687314,4.706107 13.885641,8.64822 21.126848,12.435866 1.670503,1.02027 3.533608,1.644103 5.348249,2.348966 2.444016,1.03038 4.838832,2.167595 7.223047,3.330267 2.0399,1.040151 4.0156,2.200435 6.061986,3.228507 1.852274,0.856161 0.950252,0.419868 2.707669,1.305562 1.114368,0.510763 2.156556,1.186051 3.295865,1.644892 0.976946,0.393451 2.000404,0.719881 2.989259,1.087367 1.977865,0.864904 3.948793,1.628264 6.071122,2.043388 0.318817,0.07261 0.640434,0.133876 0.956451,0.217842 0.291195,0.07737 0.571909,0.191603 0.86392,0.265833 1.32033,0.335635 2.682651,0.448454 4.036105,0.54748 2.742219,0.246466 5.454642,-0.06485 8.137238,-0.618515 2.42518,-0.431145 4.809003,-1.043676 7.193367,-1.654745 2.664291,-0.648707 5.163274,-1.794648 7.796544,-2.545074 2.25091,-0.363192 4.27804,-1.4415 6.42879,-2.135919 0.32526,-0.101284 0.65772,-0.181833 0.97579,-0.303851 0.36012,-0.13815 0.69946,-0.325755 1.05503,-0.475222 1.49357,-0.627838 3.0064,-1.214745 4.5028,-1.837487 0.38425,-0.169926 0.77428,-0.327347 1.15276,-0.509778 0.73351,-0.353563 1.43746,-0.765782 2.16523,-1.131018 0.97519,-0.489407 1.93563,-0.928364 2.87561,-1.485722 1.71152,-1.146901 3.59603,-1.94928 5.491,-2.726245 1.27815,-0.489376 2.63852,-0.729827 3.98796,-0.933627 0.43315,-0.06698 0.7266,-0.0168 0.99107,-0.466767 0.049,-0.08346 0.79033,-1.489072 0.26298,-1.81651 -11.62638,-7.218995 -8.70103,-6.181917 -14.42948,-8.075738 -2.16248,-1.062667 -4.5138,-1.616021 -6.8658,-2.069242 -1.89856,-0.537042 -3.87577,-0.596771 -5.79619,-1.018771 -1.70517,-0.374149 -3.31611,-1.040645 -5.04053,-1.322187 -1.193352,-0.09673 -2.338798,-0.455338 -3.474416,-0.804379 -1.247645,-0.418846 -2.379628,-1.067675 -3.614637,-1.53409 -1.6758,-0.363242 -3.243142,-1.030262 -4.854201,-1.591511 -1.644809,-0.521321 -0.84319,-0.25145 -2.405953,-0.806346 -1.191764,-0.197872 -2.164374,-0.854254 -3.212661,-1.382986 -1.059163,-0.534217 0.0096,0.07803 -0.93812,-0.484055 -1.075809,-0.442615 -2.142263,-0.884692 -3.255807,-1.232912 0,0 11.816233,9.213104 11.816233,9.213104 v 0 c 1.074051,0.424336 2.141442,0.879896 3.158515,1.427554 1.366465,0.622121 2.725818,1.231142 4.187838,1.613453 2.429109,0.817021 4.858319,1.641518 7.267489,2.510348 1.23052,0.544864 2.43518,1.144685 3.7598,1.438033 1.15086,0.306391 2.33828,0.445463 3.50208,0.692381 1.67138,0.440801 3.31736,0.986062 5.02773,1.270195 1.92389,0.304346 3.85808,0.542938 5.74964,1.025908 2.31977,0.537789 4.56674,1.289543 6.72912,2.294027 5.41867,2.60231 -2.60676,-1.22207 -11.30079,-6.688891 -0.16137,-0.101467 0.37762,-0.102238 0.5282,-0.219127 0.22207,-0.172399 0.40878,-0.39293 0.56301,-0.627988 0.11729,-0.178747 -1.72117,0.249771 -0.63883,0.05704 -1.41851,0.287679 -2.83596,0.594107 -4.15002,1.225153 -1.92346,0.825223 -3.75601,1.819195 -5.55238,2.892987 -1.98853,1.058196 -3.99749,2.093013 -6.06042,2.997672 -2.1574,0.883786 -4.312755,1.786046 -6.527204,2.518225 -2.101003,0.780579 -4.169421,1.644668 -6.37356,2.10901 -2.569504,0.849272 -5.071178,1.919253 -7.725158,2.495018 -2.370753,0.572318 -4.746645,1.124635 -7.142512,1.583231 -2.629536,0.438756 -5.278749,0.587445 -7.933518,0.242198 -1.949675,-0.25028 -3.843126,-0.718005 -5.747907,-1.195625 -2.038929,-0.568914 -3.959751,-1.444204 -5.938582,-2.187567 -2.106547,-0.814972 -4.154928,-1.73594 -6.146037,-2.808006 -2.948192,-1.438044 -5.819846,-3.020008 -8.746868,-4.49895 -2.431074,-1.171929 -4.87509,-2.323491 -7.387587,-3.312434 -1.789594,-0.707127 -3.539364,-1.497032 -5.215432,-2.446838 -4.514778,-2.34098 -11.241882,-6.326833 8.931741,5.307986 0.519409,0.299561 -1.025683,-0.621344 -1.537729,-0.933323 -2.059204,-1.254627 -1.167419,-0.686774 -3.123506,-1.999823 -0.994864,-0.707454 -1.300899,-0.904015 -2.208096,-1.619912 -0.225186,-0.177702 -0.423466,-0.39087 -0.663175,-0.548432 -0.06103,-0.04012 -0.692688,-0.166357 -0.628019,-0.469577 0.04442,-0.208267 0.2044,-0.37365 0.3066,-0.560475 0.992329,-1.458461 2.021659,-2.905579 3.284339,-4.146219 2.839391,-2.39886 6.359139,-3.721581 9.626731,-5.422598 2.87933,-1.320219 3.49091,-1.631612 6.482436,-2.8713 3.635688,-1.50663 7.350006,-2.832824 10.874899,-4.596887 2.221458,-1.027509 4.414455,-2.114276 6.63295,-3.148272 2.688184,-1.214711 5.400279,-2.38612 8.157221,-3.43568 z" />
  <path
     style="fill:#000000"
     id="path76"
     d="m 197.50608,7.3922765 c -10.11201,3.7223355 -19.98546,8.0485395 -29.89235,12.2765575 -4.26064,1.812139 -8.5291,3.611922 -12.74101,5.536071 -1.09175,0.498748 -3.60664,1.474289 -4.43731,2.638097 -0.39051,0.547113 -0.39375,1.285408 -0.59062,1.928111 0.32087,0.812691 0.46988,1.716524 0.96263,2.438073 1.12507,1.647508 4.16832,3.932971 5.64027,5.011519 3.42675,2.510898 7.06294,4.729075 10.69386,6.925704 6.33723,3.090077 12.10329,7.317867 18.39926,10.524572 1.49587,0.761887 3.46958,1.629884 5.00266,2.357782 5.37563,2.552324 -0.99608,-0.40621 4.09163,1.942956 3.81021,1.946032 7.56405,4.006063 11.33022,6.037563 5.51155,2.615777 17.13711,9.580962 -6.16045,-3.835167 1.95995,10.42374 9.6302,5.430858 14.51574,8.204986 0.1521,0.08637 0.27855,0.219837 0.44132,0.283867 0.29113,0.114528 1.16939,0.220045 1.43843,0.258716 5.23471,-0.09339 10.42204,-0.940546 15.58366,-1.747132 7.5322,-1.212903 15.03922,-2.62817 22.50021,-4.224732 4.62444,-1.012194 9.26583,-1.913693 13.83038,-3.175765 2.13057,-0.761324 4.3114,-1.322144 6.5079,-1.848289 0.40287,-0.117067 0.80574,-0.234135 1.20861,-0.351202 0,0 -12.27247,-8.435819 -12.27247,-8.435819 v 0 c -0.40527,0.09891 -0.81054,0.197815 -1.21581,0.296722 -2.18903,0.518393 -4.29893,1.258645 -6.43196,1.96911 -4.4837,1.25948 -9.04019,2.209853 -13.57904,3.24676 -7.38905,1.63595 -14.81722,3.143677 -22.30695,4.239905 -3.62244,0.502142 -7.22238,0.981879 -10.87868,1.151946 -1.06308,0.04945 -2.72419,0.103374 -3.85596,-0.02172 -0.33321,-0.03683 -0.65634,-0.136966 -0.98451,-0.205449 -5.04918,-1.930504 -12.57676,-8.385897 9.47407,5.723512 -6.39595,-3.684707 -12.67009,-7.581867 -19.32259,-10.787468 -3.77438,-2.000387 -7.48869,-4.121304 -11.35136,-5.948606 -2.97026,-1.38918 -5.9793,-2.726891 -8.88435,-4.249218 -0.94577,-0.495611 -3.7281,-2.083014 -2.80984,-1.538127 3.03414,1.800418 6.10575,3.536938 9.15862,5.305407 -3.92152,-2.295224 -3.24375,-1.837621 -7.15015,-4.379774 -3.17159,-2.063965 -6.38177,-4.173949 -9.16537,-6.759009 -0.47347,-0.439692 -0.87491,-0.951065 -1.31236,-1.426598 -0.008,-0.355291 -0.21633,-0.76687 -0.0242,-1.065874 0.61146,-0.951849 3.3065,-2.165354 3.9985,-2.511719 4.06491,-2.034602 8.21268,-3.902186 12.37178,-5.733884 9.96997,-4.352894 19.97514,-8.775742 30.47935,-11.695584 z" />
</svg>
